<svg width="20" height="20" viewBox="0 0 20 20" fill="none" xmlns="http://www.w3.org/2000/svg">
<path d="M15.3401 3.46C15.1028 3.46 14.8708 3.53038 14.6734 3.66224C14.4761 3.79409 14.3223 3.98151 14.2315 4.20078C14.1406 4.42005 14.1169 4.66133 14.1632 4.89411C14.2095 5.12689 14.3238 5.34071 14.4916 5.50853C14.6594 5.67635 14.8732 5.79064 15.106 5.83694C15.3388 5.88324 15.5801 5.85948 15.7993 5.76866C16.0186 5.67783 16.206 5.52402 16.3379 5.32668C16.4697 5.12935 16.5401 4.89734 16.5401 4.66C16.5401 4.34174 16.4137 4.03652 16.1887 3.81147C15.9636 3.58643 15.6584 3.46 15.3401 3.46ZM19.9401 5.88C19.9207 5.0503 19.7653 4.2294 19.4801 3.45C19.2259 2.78313 18.8301 2.17928 18.3201 1.68C17.8249 1.16743 17.2197 0.774176 16.5501 0.53C15.7728 0.236161 14.951 0.07721 14.1201 0.0599999C13.0601 -5.58794e-08 12.7201 0 10.0001 0C7.28012 0 6.94012 -5.58794e-08 5.88012 0.0599999C5.04927 0.07721 4.22747 0.236161 3.45012 0.53C2.7818 0.776649 2.17706 1.16956 1.68012 1.68C1.16755 2.17518 0.774299 2.78044 0.530122 3.45C0.236283 4.22734 0.0773321 5.04915 0.060122 5.88C0.000122014 6.94 0.00012207 7.28 0.00012207 10C0.00012207 12.72 0.000122014 13.06 0.060122 14.12C0.0773321 14.9508 0.236283 15.7727 0.530122 16.55C0.774299 17.2196 1.16755 17.8248 1.68012 18.32C2.17706 18.8304 2.7818 19.2234 3.45012 19.47C4.22747 19.7638 5.04927 19.9228 5.88012 19.94C6.94012 20 7.28012 20 10.0001 20C12.7201 20 13.0601 20 14.1201 19.94C14.951 19.9228 15.7728 19.7638 16.5501 19.47C17.2197 19.2258 17.8249 18.8326 18.3201 18.32C18.8324 17.8226 19.2285 17.2182 19.4801 16.55C19.7653 15.7706 19.9207 14.9497 19.9401 14.12C19.9401 13.06 20.0001 12.72 20.0001 10C20.0001 7.28 20.0001 6.94 19.9401 5.88ZM18.1401 14C18.1328 14.6348 18.0179 15.2637 17.8001 15.86C17.6405 16.2952 17.384 16.6884 17.0501 17.01C16.7258 17.3405 16.3333 17.5964 15.9001 17.76C15.3038 17.9778 14.6749 18.0927 14.0401 18.1C13.0401 18.15 12.6701 18.16 10.0401 18.16C7.41012 18.16 7.04012 18.16 6.04012 18.1C5.38101 18.1123 4.72472 18.0109 4.10012 17.8C3.6859 17.6281 3.31148 17.3728 3.00012 17.05C2.66821 16.7287 2.41497 16.3352 2.26012 15.9C2.01598 15.2952 1.88057 14.6519 1.86012 14C1.86012 13 1.80012 12.63 1.80012 10C1.80012 7.37 1.80012 7 1.86012 6C1.8646 5.35106 1.98307 4.70795 2.21012 4.1C2.38617 3.67791 2.65639 3.30166 3.00012 3C3.30394 2.65617 3.67941 2.3831 4.10012 2.2C4.70967 1.98004 5.35212 1.86508 6.00012 1.86C7.00012 1.86 7.37012 1.8 10.0001 1.8C12.6301 1.8 13.0001 1.8 14.0001 1.86C14.6349 1.86728 15.2638 1.98225 15.8601 2.2C16.3146 2.36865 16.7224 2.64285 17.0501 3C17.3778 3.30718 17.6339 3.68273 17.8001 4.1C18.0224 4.70893 18.1374 5.35178 18.1401 6C18.1901 7 18.2001 7.37 18.2001 10C18.2001 12.63 18.1901 13 18.1401 14ZM10.0001 4.87C8.98593 4.87198 7.99508 5.17453 7.15278 5.73942C6.31047 6.30431 5.6545 7.1062 5.26776 8.04375C4.88101 8.98131 4.78085 10.0125 4.97992 11.0069C5.17899 12.0014 5.66836 12.9145 6.3862 13.631C7.10404 14.3474 8.01813 14.835 9.01298 15.0321C10.0078 15.2293 11.0388 15.1271 11.9756 14.7385C12.9124 14.35 13.713 13.6924 14.2763 12.849C14.8395 12.0056 15.1401 11.0142 15.1401 10C15.1414 9.3251 15.0093 8.65661 14.7514 8.03296C14.4934 7.40931 14.1147 6.84281 13.637 6.36605C13.1593 5.88929 12.5921 5.51168 11.9679 5.25493C11.3438 4.99818 10.675 4.86736 10.0001 4.87ZM10.0001 13.33C9.34151 13.33 8.69769 13.1347 8.15007 12.7688C7.60246 12.4029 7.17564 11.8828 6.9236 11.2743C6.67156 10.6659 6.60562 9.99631 6.73411 9.35035C6.8626 8.70439 7.17975 8.11104 7.64546 7.64533C8.11117 7.17963 8.70451 6.86247 9.35047 6.73398C9.99643 6.6055 10.666 6.67144 11.2745 6.92348C11.8829 7.17552 12.403 7.60234 12.7689 8.14995C13.1348 8.69757 13.3301 9.34139 13.3301 10C13.3301 10.4373 13.244 10.8703 13.0766 11.2743C12.9093 11.6784 12.664 12.0454 12.3548 12.3547C12.0456 12.6639 11.6785 12.9092 11.2745 13.0765C10.8704 13.2439 10.4374 13.33 10.0001 13.33Z" fill="#43444A"/>
</svg>
