<svg width="24" height="24" viewBox="0 0 24 24" fill="none" xmlns="http://www.w3.org/2000/svg">
<path d="M7.75799 10.758C8.35133 10.758 8.93135 10.5821 9.4247 10.2524C9.91805 9.92276 10.3026 9.45423 10.5296 8.90605C10.7567 8.35787 10.8161 7.75467 10.7003 7.17273C10.5846 6.59079 10.2989 6.05624 9.87931 5.63668C9.45975 5.21712 8.9252 4.9314 8.34326 4.81564C7.76132 4.69989 7.15812 4.7593 6.60994 4.98636C6.06176 5.21342 5.59323 5.59794 5.26358 6.09129C4.93394 6.58464 4.75799 7.16466 4.75799 7.758C4.75878 8.55341 5.07511 9.31601 5.63755 9.87844C6.19998 10.4409 6.96258 10.7572 7.75799 10.758ZM7.75799 6.758C7.95577 6.758 8.14911 6.81665 8.31356 6.92653C8.47801 7.03641 8.60618 7.19259 8.68187 7.37532C8.75756 7.55804 8.77736 7.75911 8.73878 7.95309C8.70019 8.14707 8.60495 8.32525 8.4651 8.46511C8.32524 8.60496 8.14706 8.7002 7.95308 8.73879C7.7591 8.77737 7.55803 8.75757 7.37531 8.68188C7.19258 8.60619 7.0364 8.47802 6.92652 8.31357C6.81664 8.14912 6.75799 7.95578 6.75799 7.758C6.75799 7.49278 6.86335 7.23843 7.05088 7.05089C7.23842 6.86336 7.49277 6.758 7.75799 6.758ZM16.242 13.242C15.6486 13.242 15.0686 13.4179 14.5753 13.7476C14.0819 14.0772 13.6974 14.5458 13.4704 15.0939C13.2433 15.6421 13.1839 16.2453 13.2996 16.8273C13.4154 17.4092 13.7011 17.9438 14.1207 18.3633C14.5402 18.7829 15.0748 19.0686 15.6567 19.1844C16.2387 19.3001 16.8419 19.2407 17.39 19.0136C17.9382 18.7866 18.4068 18.4021 18.7364 17.9087C19.066 17.4154 19.242 16.8353 19.242 16.242C19.2412 15.4466 18.9249 14.684 18.3624 14.1216C17.8 13.5591 17.0374 13.2428 16.242 13.242ZM16.242 17.242C16.0442 17.242 15.8509 17.1834 15.6864 17.0735C15.522 16.9636 15.3938 16.8074 15.3181 16.6247C15.2424 16.442 15.2226 16.2409 15.2612 16.0469C15.2998 15.8529 15.395 15.6747 15.5349 15.5349C15.6747 15.395 15.8529 15.2998 16.0469 15.2612C16.2409 15.2226 16.4419 15.2424 16.6247 15.3181C16.8074 15.3938 16.9636 15.522 17.0735 15.6864C17.1833 15.8509 17.242 16.0442 17.242 16.242C17.242 16.5072 17.1366 16.7616 16.9491 16.9491C16.7616 17.1366 16.5072 17.242 16.242 17.242ZM19.707 4.293C19.5195 4.10553 19.2652 4.00021 19 4.00021C18.7348 4.00021 18.4805 4.10553 18.293 4.293L4.29299 18.293C4.19748 18.3852 4.1213 18.4956 4.06889 18.6176C4.01648 18.7396 3.98889 18.8708 3.98774 19.0036C3.98659 19.1364 4.01189 19.2681 4.06217 19.391C4.11245 19.5138 4.1867 19.6255 4.28059 19.7194C4.37449 19.8133 4.48614 19.8875 4.60904 19.9378C4.73193 19.9881 4.86361 20.0134 4.99639 20.0123C5.12917 20.0111 5.26039 19.9835 5.38239 19.9311C5.5044 19.8787 5.61474 19.8025 5.70699 19.707L19.707 5.707C19.8945 5.51947 19.9998 5.26516 19.9998 5C19.9998 4.73484 19.8945 4.48053 19.707 4.293Z" fill="#FF5100"/>
</svg>
